<svg id="Layer_1" data-name="Layer 1" xmlns="http://www.w3.org/2000/svg" viewBox="0 0 147 45"><defs><style>.cls-1{fill:#f05d5c;fill-rule:evenodd;}</style></defs><title>white</title><path class="cls-1" d="M39.7,18.4c3.3,0,5.9,2.9,5.9,6.5s-2.6,6.5-5.9,6.5-5.8-2.9-5.8-6.5,2.6-6.5,5.8-6.5m0-5.9c6.2,0,11.2,5.5,11.2,12.4s-5,12.3-11.2,12.3S28.6,31.7,28.6,24.9,33.6,12.5,39.7,12.5Z" transform="translate(0 -2.5)"/><path class="cls-1" d="M134.9,6.8V13h-4v5.1h4V28.4c0,5.9,3,8.8,7.7,8.7A11.4,11.4,0,0,0,147,36l-1.5-5a5.9,5.9,0,0,1-2.5.7c-1.7,0-2.8-1.1-2.8-3.3V18.1h5.9V13h-5.9V11.6c0-3.8-2.1-4.9-5.3-4.8" transform="translate(0 -2.5)"/><path class="cls-1" d="M26.8,2.9H11.9V4.1c0,2.9,1.7,4.7,4.1,4.7h5.1V22.3c0,5.1-2.5,9.1-7.7,9.1s-7.7-2.9-7.7-8.7H0c0,9.6,5.6,14.7,13.4,14.7s13.4-6.3,13.4-15.1Z" transform="translate(0 -2.5)"/><path class="cls-1" d="M107.6,12.9V25.4c0,7.4,3.6,11.7,10.5,11.7s10.5-4.3,10.5-11.7V12.9h-5.3V25.4c0,3.6-1.8,6.4-5.2,6.4s-5.2-2.8-5.2-6.4V17.5c0-2.9-1.6-4.6-4.7-4.6Z" transform="translate(0 -2.5)"/><path class="cls-1" d="M67,12.9,61.3,28.6,56.7,16.3c-.8-2.2-2.6-3.4-5.3-3.4H49.3L58.2,37l-2.1,5.5c-.7,3.1.6,4.7,4.1,5L72.9,12.9Z" transform="translate(0 -2.5)"/><path class="cls-1" d="M101.8,8.5a18.8,18.8,0,0,1-.8,23.7,14.6,14.6,0,0,1-21.4.8l4.1-4.5a9.3,9.3,0,0,0,13.2-.8A12,12,0,0,0,97.7,13ZM81,25.7A15.8,15.8,0,0,1,79.6,9a16.7,16.7,0,0,0-1.1,19.4Zm2.5-10.8c.8-3.3,5.1-2,4.3,1.3S82.7,18.2,83.5,14.9ZM76.4,7.5c-.2.3-.1.5.4.5h.9a.5.5,0,0,1,.4.2l.2.2a18.8,18.8,0,0,0-.2,23l3.4-3.8.7-.7L96.1,11.3l1.6-1.8,2.5-2.7A14.5,14.5,0,0,0,79.4,7V6.8a.5.5,0,0,1-.2-.4,8.7,8.7,0,0,1,.1-1.1c0-.5-.2-.6-.5-.4A5.9,5.9,0,0,0,76.4,7.5ZM92,23.6c.8-3.3,5.1-2.1,4.3,1.3S91.2,26.9,92,23.6Z" transform="translate(0 -2.5)"/></svg>